<?xml version="1.0"?>
<svg width="512" height="512" xmlns="http://www.w3.org/2000/svg">
 <g>
  <title>Layer 1</title>
  <path id="calendar-3-icon" d="m197.453003,272.951996h-58.904999v-58.903992h58.904999v58.903992l0,0zm88.998993,-58.903992h-58.903992v58.903992h58.903992v-58.903992l0,0zm89,0h-58.904999v58.903992h58.904999v-58.903992l0,0zm-177.998993,86h-58.904999v58.904999h58.904999v-58.904999l0,0zm88.998993,0h-58.903992v58.904999h58.903992v-58.904999l0,0zm-236.451996,-229.048004v370h247.565002c18.927002,0 37.070984,-7.550995 50.411011,-20.977997l93.375,-93.988007c13.225983,-13.312012 20.648987,-31.31601 20.648987,-50.080994v-204.953003h-412l0,0zm372,190.5c0,70.5 -95.627991,46.833008 -95.627991,46.833008s28.333984,92.666992 -43,92.666992c-16.476013,0 -193.372009,0 -193.372009,0v-233.470993h332c0,0 0,82.394989 0,93.970993z" fill="#2196f3"/>
 </g>
</svg>