<?xml version="1.0"?>
<svg width="512" height="512" xmlns="http://www.w3.org/2000/svg">
 <g>
  <title>Layer 1</title>
  <path fill="#3f51b5" d="m334.832001,50h-157.664001c-18.227005,0 -33,14.774002 -33,33v346c0,18.226013 14.772995,33 33,33h157.664001c18.22699,0 33,-14.773987 33,-33v-346c0,-18.225998 -14.77301,-33 -33,-33zm-96.332001,30.222h37c2.209015,0 4,1.791 4,4s-1.790985,4 -4,4h-37c-2.209,0 -4,-1.791 -4,-4s1.791,-4 4,-4zm18.502014,362.834c-8.838013,0 -16.000015,-7.162994 -16.000015,-16s7.162003,-16 16.000015,-16c8.833984,0 16,7.162994 16,16s-7.166016,16 -16,16zm85.747986,-49.306h-173.498001v-275.5h173.498001v275.5l0,0z" id="smartphone-4-icon"/>
 </g>
</svg>