<?xml version="1.0"?>
<svg width="512" height="512" xmlns="http://www.w3.org/2000/svg">
 <g>
  <title>Layer 1</title>
  <path fill="#3f51b5" d="m461.967987,359.358002h-79.937012c-0.003998,-86.998016 -43.48999,-45.64801 -43.48999,-121.884995c0,-27.520004 18.016998,-42.455002 41.149994,-42.455002c34.181,0 57.969025,32.634995 25.601013,93.660004c-10.634003,20.048981 11.322998,24.811981 34.911987,30.253998c23.578033,5.437988 21.764008,17.869995 21.764008,40.425995zm-390.171989,-40.424988c23.589005,-5.44101 45.546005,-10.205017 34.912003,-30.253998c-32.368004,-61.025009 -8.580002,-93.660004 25.601006,-93.660004c23.133987,0 41.149994,14.936005 41.149994,42.455002c0,76.236008 -43.485992,34.887009 -43.490005,121.884995h-79.936993c0,-22.557007 -1.814003,-34.989014 21.763996,-40.425995zm260.318993,-10.424011c-29.670013,-6.846008 -57.289001,-12.838013 -43.912994,-38.054993c40.714996,-76.762009 10.791992,-117.811996 -32.202011,-117.811996c-43.841995,0 -73.026993,42.625 -32.200989,117.811996c13.776001,25.371002 -14.883011,31.356995 -43.915009,38.054993c-29.658005,6.839996 -27.376999,22.47699 -27.376999,50.850006h206.985016c0,-28.374023 2.281982,-44.01001 -27.377014,-50.850006z" id="user-14-icon"/>
 </g>
</svg>