<?xml version="1.0"?>
<svg width="512" height="512" xmlns="http://www.w3.org/2000/svg">
 <g>
  <title>Layer 1</title>
  <path fill="#3f51b5" d="m189.347,173.615005h-56.751007l123.406021,-123.615005l123.401978,123.615005h-56.750977v150.309982h-133.306015v-150.309982l0,0zm-102.583,181.212997v107.171997h338.473v-107.171997h-338.473l0,0zm55.040993,68.585999h-14.999992v-30h14.999992v30l0,0zm27.25,0h-15v-30h15v30l0,0zm26.5,0h-15v-30h15v30l0,0zm175.334015,2.5c-9.665009,0 -17.5,-7.834991 -17.5,-17.5s7.834991,-17.5 17.5,-17.5s17.5,7.834991 17.5,17.5s-7.835022,17.5 -17.5,17.5z" id="upload-3-icon"/>
 </g>
</svg>